<?xml version="1.0" encoding="UTF-8"?>
<svg width="244.04" height="93.58" version="1.1" viewBox="0 0 244.04 93.58" xml:space="preserve" xmlns="http://www.w3.org/2000/svg">
<style type="text/css">
	.st0{fill:#005AA7;}
	.st1{display:none;fill:#FFFFFF;}
	.st2{fill:none;stroke:#FFFFFF;stroke-width:3.2892;stroke-linecap:round;stroke-linejoin:round;}
	.st3{fill:none;stroke:#FFFFFF;stroke-width:3.289;stroke-linecap:round;stroke-linejoin:round;}
	.st4{fill:#FFFFFF;}
	.st5{fill:none;stroke:#FFFFFF;stroke-miterlimit:10;}
</style>
<g transform="translate(-27.98,-103.21)">
	<g fill="#fff">
		<polygon points="27.98 134.4 27.98 165.6 59.17 196.79 90.36 165.6 59.17 165.6 59.17 134.4 90.36 134.4 90.36 165.6 121.55 196.79 121.55 165.6 121.55 134.4 90.36 103.21 59.17 103.21"/>
		<path d="m139.47 182.74v-0.77h1.47v-16.21h-1.47v-0.76h1.47v-2.2c0-3.18 1.57-4.78 4.05-4.78 0.8 0 1.82 0.28 2.62 0.59v4.47h-0.56c-1.22-3.49-1.29-4.3-2.41-4.3-0.87 0-1.47 0.63-1.47 2.03v4.19h3.56v0.77h-3.56v16.21h2.48v0.77h-6.18z"/>
		<path d="m151.03 172.33c-0.04 0.59-0.04 1.19-0.04 1.61-0.03 5.66 1.75 8.59 4.44 8.59 1.92 0 3.21-1.01 4.05-2.38 0.7-1.15 0.98-2.65 1.05-4.12h0.77c0 1.5-0.24 3.04-1.05 4.43-0.94 1.64-2.51 2.83-4.99 2.83-5.17 0-6.67-5.06-6.67-9.43 0-5 2.48-9.43 6.67-9.43 3.11 0 5.69 2.1 5.69 6.88v1.01h-9.92zm7.55-0.77v-0.42c0-3.77-0.94-5.94-3.46-5.94-2.97 0-3.98 3.91-4.02 6.36z"/>
		<path d="m174.16 170.93-1.05-3.67c-0.45-1.57-0.94-2.06-2.93-2.06-2.48 0-3.63 1.61-3.63 3 0 3.56 9.15 4.05 9.15 9.43 0 3.88-2.93 5.66-6.04 5.66-1.54 0-3.35-0.7-4.44-1.75v-5.8h0.56c0.98 5.76 1.5 6.78 4.23 6.78 2.16 0 4.09-1.47 4.09-3.91 0-4.33-9.15-4.51-9.15-9.68 0-1.96 1.43-4.51 5.59-4.51 1.54 0 2.86 0.45 4.19 0.98v5.52h-0.57z"/>
		<path d="m178.94 165.76v-0.76h1.54v-3.6h2.24v3.6h3.35v0.77h-3.35v14.15c0 1.47 0.49 2.34 1.61 2.34 1.43 0 2.1-0.7 2.1-3.21v-2.93h0.77v2.86c0 3.07-1.15 4.33-3.42 4.33-2.03 0-3.28-1.22-3.28-4.02v-13.52h-1.56z"/>
		<path d="m191.03 165.76h-1.61v-0.76h3.84v16.97h1.68v0.77h-5.52v-0.77h1.61zm0.97-6.7c0.84 0 1.5 0.66 1.5 1.5s-0.66 1.5-1.5 1.5-1.5-0.66-1.5-1.5 0.67-1.5 1.5-1.5"/>
		<polygon points="202.27 165.76 199.72 165.76 204.47 179.67 204.54 179.67 209.26 165.76 206.88 165.76 206.88 165 211.28 165 211.28 165.76 210.17 165.76 204.33 182.88 203.39 182.88 197.52 165.76 196.33 165.76 196.33 165 202.27 165"/>
		<path d="m222.49 179.07h-0.07c-0.7 2.55-2.55 4.23-5.27 4.23-2.69 0-4.72-1.89-4.72-4.61 0-6.15 6.43-4.68 9.99-7.27v-1.75c0-2.51-0.91-4.47-3.63-4.47-3.39 0-3.46 3.84-4.05 6.29h-0.56v-5.55c0.87-0.59 2.69-1.5 4.54-1.5 3.88 0 5.94 1.75 5.94 6.18v11.35h1.36v0.77h-3.53zm-0.06-6.77c-3.18 2.34-7.89 1.78-7.89 5.97 0 2.37 1.47 3.84 3.6 3.84 2.76 0 4.3-3.04 4.3-7.19v-2.62z"/>
		<polygon points="228.71 158.57 233.04 158.57 233.04 181.97 234.72 181.97 234.72 182.74 229.2 182.74 229.2 181.97 230.81 181.97 230.81 159.34 228.71 159.34"/>
		<path d="m140.9 140.65v-5.52c1.92-0.84 4.12-1.29 6.22-1.29 4.99 0 7.51 1.26 7.51 5.69v11.84h1.68v0.77h-6.78v-2.51h-0.07c-0.94 2.3-2.51 3.07-4.75 3.07-3.35 0-5.97-2.1-5.97-4.99 0-6.18 8.73-5.1 10.2-7.16v-3.04c0-1.61-0.35-2.9-2.23-2.9-2.51 0-3.67 4.19-4.4 6.04zm8 0.98c-2.79 1.89-3.81 0.17-3.81 6.43 0 2.34 0.38 3.32 1.71 3.32s2.1-1.4 2.1-3.81z"/>
		<path d="m157.57 152.15v-0.77h1.68v-16.21h-1.68v-0.77h6.88v2.9h0.07c0.94-2.03 1.99-3.46 4.51-3.46 0.73 0 1.47 0.18 2.09 0.35v7.09h-0.98c-0.98-3.07-1.57-5.69-2.93-5.69-0.98 0-2.38 1.75-2.38 3.98v11.81h1.68v0.77z"/>
		<polygon points="179.99 135.17 183.34 146.66 183.41 146.66 187.04 135.17 184.49 135.17 184.49 134.4 189.1 134.4 189.1 135.17 187.85 135.17 182.43 152.29 179.39 152.29 173.84 135.17 172.41 135.17 172.41 134.4 182.22 134.4 182.22 135.17"/>
		<path d="m191.27 140.65v-5.52c1.92-0.84 4.12-1.29 6.22-1.29 5 0 7.51 1.26 7.51 5.69v11.84h1.68v0.77h-6.78v-2.51h-0.07c-0.94 2.3-2.51 3.07-4.75 3.07-3.35 0-5.97-2.1-5.97-4.99 0-6.18 8.73-5.1 10.2-7.16v-3.04c0-1.61-0.35-2.9-2.23-2.9-2.51 0-3.67 4.19-4.4 6.04zm8 0.98c-2.79 1.89-3.81 0.17-3.81 6.43 0 2.34 0.38 3.32 1.71 3.32s2.1-1.4 2.1-3.81z"/>
		<path d="m216.42 152.15h-8.31v-0.77h1.68v-16.21h-1.68v-0.77h6.78v1.71h0.07c1.01-1.61 2.62-2.27 4.4-2.27 2.13 0 3.91 0.73 4.65 2.55 0.98-1.78 2.55-2.55 4.61-2.55 3.56 0 5.27 1.82 5.27 5.27v12.29h1.68v0.73h-8.31v-0.73h1.05v-14.18c0-1.01-0.39-2.06-1.61-2.06s-2.06 1.15-2.06 3.18v13.03h1.05v0.77h-7.68v-0.77h1.05v-13.9c0-1.57-0.45-2.31-1.47-2.31-1.36 0-2.2 1.22-2.2 3.74v12.47h1.05v0.78z"/>
		<path d="m237.97 135.17h-1.68v-0.77h7.26v14.21c0 1.5 0.42 2.41 1.43 2.41 1.82 0 2.55-2.24 2.55-5.45v-10.41h-1.05v-0.77h6.64v16.97h1.68v0.77h-6.95v-2.69h-0.07c-0.7 1.96-2.86 3.25-4.96 3.25-3.28 0-4.85-2.17-4.85-5.52z"/>
		<path d="m257.25 145.72h1.68c1.12 2.97 1.5 6.22 5.41 6.22 2.38 0 3.84-0.77 3.84-2.58 0-4.58-11.21-2.41-11.21-9.57 0-3.32 2.83-5.94 7.44-5.94 2.13 0 4.23 0.56 6.15 1.4v4.99h-1.4c-1.05-3.28-2.06-5.62-5.24-5.62-2.1 0-3.11 1.26-3.11 2.38 0 4.3 11.21 2.51 11.21 9.32 0 3.14-2.3 6.39-8.03 6.39-1.85 0-4.61-0.49-6.74-1.64z"/>
	</g>
</g>

</svg>
