<?xml version="1.0" encoding="UTF-8"?>
<svg width="693.54" height="86.11" version="1.1" viewBox="0 0 693.54 86.11" xml:space="preserve" xmlns="http://www.w3.org/2000/svg">
<path d="m661.49 39.5c1.15-6.13 5.32-9.94 10.74-9.94 4.97 0 9.32 3.64 10.03 9.94zm32.05 6.21c0-15.98-9.14-24.77-21.3-24.77-12.61 0-22.19 8.97-22.19 23.43 0 13.4 9.5 23.26 24.5 23.26 7.81 0 12.7-1.42 16.95-3.46l-2.4-8.79c-3.73 1.78-8.52 2.84-13.85 2.84-8.25 0-13.05-3.82-13.94-10.83h32.23zm-80.62-6.21c1.15-6.13 5.32-9.94 10.74-9.94 4.97 0 9.32 3.64 10.03 9.94zm32.04 6.21c0-15.98-9.14-24.77-21.3-24.77-12.6 0-22.19 8.97-22.19 23.43 0 13.4 9.5 23.26 24.5 23.26 7.81 0 12.69-1.42 16.95-3.46l-2.4-8.79c-3.73 1.78-8.52 2.84-13.85 2.84-8.25 0-13.05-3.82-13.94-10.83h32.22v-1.68zm-54.77 22.02c4 0 7.19-3.29 7.19-7.28s-3.19-7.28-7.19-7.28-7.28 3.29-7.28 7.28 3.29 7.28 7.28 7.28m-31.33-0.09c11.45 0 18.02-5.59 18.02-14.29 0-7.9-5.33-11.1-13.32-13.58-6.57-2.04-10.03-3.29-10.03-6.39 0-2.75 2.48-4.17 5.59-4.17 3.73 0 7.28 1.86 9.15 4.35l7.01-5.59c-2.75-3.91-8.26-7.1-16.16-7.1-9.5 0-16.42 5.32-16.42 13.76 0 7.99 6.04 11.36 13.49 13.49 6.92 1.95 9.77 3.11 9.77 6.12 0 2.93-2.75 4.62-7.28 4.62-4.88 0-10.12-1.6-13.94-4.08l-3.9 8.34c4.97 2.83 10.47 4.52 18.02 4.52m-36.66-45.89v30.09c-2.75 3.29-6.75 5.86-11.18 5.86-6.04 0-9.23-3.73-9.23-10.65v-25.3h-11.09v26.89c0 11.98 5.86 18.99 16.95 18.99 6.57 0 11.19-2.75 14.56-6.39v5.5h11.1v-45h-11.11zm-41.28 45.53h0.98l1.42-10.21h-0.8c-7.63 0-11.27-3.11-11.27-9.94v-15.45h12.78v-9.85h-12.78v-11.98h-11.19l0.09 11.98h-8.07v9.85h8.07v16.95c0 12.88 6.57 18.65 20.77 18.65m-59.29-9.76c-7.01 0-11.89-5.06-11.89-12.78 0-8.08 4.88-13.76 13.4-13.76 4.17 0 7.99 1.24 11.09 2.75v9.59c0.18 7.9-4.97 14.2-12.6 14.2m23.61-7.81v-27.87h-9.94l-0.35 2.75c-3.64-2.22-8.43-3.64-13.4-3.64-13.4 0-23.26 9.59-23.26 23.79 0 14.11 8.88 22.9 20.86 22.9 6.57 0 12.78-2.93 16.07-8.7 1.6 4.17 4.88 7.28 9.59 8.43l4.97-9.59c-3.65-1.68-4.54-4.61-4.54-8.07m-77.58 7.28c-7.37 0-11.9-5.24-11.9-12.69 0-7.9 5.5-13.85 13.23-13.85 5.06 0 8.96 1.77 11.63 3.73v9.94c0 6.83-5.41 12.87-12.96 12.87m13.76-35.15-0.44 3.55c-3.29-2.49-8.26-4.44-14.21-4.44-13.22 0-22.28 9.68-22.28 23.35 0 13.4 8.26 22.28 20.51 22.28 6.83 0 12.43-3.11 15.36-7.81v5.15c0 8.08-5.5 12.43-12.96 12.43-6.75 0-11.9-1.6-16.78-4.17l-3.91 9.23c5.86 3.11 11.81 4.7 20.68 4.7 14.38 0 24.05-7.28 24.05-22.72v-41.54h-10.02zm-41.45 45.53h0.36l1.24-10.3c-6.83 0-10.48-3.19-10.48-9.85v-47.22h-11.01v48.73c0 12.87 6.22 18.64 19.89 18.64m-54.68-9.85c-7.01 0-11.9-5.06-11.9-12.78 0-8.08 4.88-13.76 13.4-13.76 4.17 0 7.99 1.24 11.1 2.75v9.59c0.18 7.9-4.97 14.2-12.6 14.2m23.61-7.81v-27.87h-9.94l-0.35 2.75c-3.64-2.22-8.44-3.64-13.4-3.64-13.4 0-23.26 9.59-23.26 23.79 0 14.11 8.88 22.9 20.86 22.9 6.57 0 12.78-2.93 16.07-8.7 1.6 4.17 4.88 7.28 9.59 8.43l4.97-9.59c-3.65-1.68-4.54-4.61-4.54-8.07m-79.71 7.81c-7.02 0-11.9-5.06-11.9-12.78 0-8.08 4.88-13.76 13.4-13.76 4.17 0 7.99 1.24 11.09 2.75v9.59c0.19 7.9-4.96 14.2-12.59 14.2m23.61-7.81v-27.87h-9.94l-0.36 2.75c-3.64-2.22-8.43-3.64-13.4-3.64-13.4 0-23.26 9.59-23.26 23.79 0 14.11 8.88 22.9 20.86 22.9 6.57 0 12.78-2.93 16.07-8.7 1.6 4.17 4.88 7.28 9.59 8.43l4.97-9.59c-3.64-1.68-4.53-4.61-4.53-8.07m-59.83-27.87-11.8 30.98-11.72-30.98h-12.25l18.55 44.92h10.39l18.28-44.92zm-55.74-0.98c-6.75 0-11.63 2.84-15 6.57v-27.43h-11.01v66.75h11.01v-30c2.84-3.37 7.01-5.86 11.54-5.86 5.86 0 8.96 3.64 8.96 10.56v25.3h11.1v-26.9c0-11.98-5.77-18.99-16.6-18.99m-60.72 36.66c-7.02 0-11.9-5.06-11.9-12.78 0-8.08 4.88-13.76 13.4-13.76 4.17 0 7.99 1.24 11.09 2.75v9.59c0.19 7.9-4.95 14.2-12.59 14.2m23.61-7.81v-27.87h-9.94l-0.36 2.75c-3.64-2.22-8.43-3.64-13.4-3.64-13.4 0-23.26 9.59-23.26 23.79 0 14.11 8.88 22.9 20.86 22.9 6.57 0 12.78-2.93 16.07-8.7 1.6 4.17 4.88 7.28 9.59 8.43l4.97-9.59c-3.64-1.68-4.53-4.61-4.53-8.07m-88.23-36.04h8.34c5.68 0 10.21 2.75 10.21 9.32 0 6.66-4.7 9.67-10.3 9.67h-8.25zm37.11 42.87c-4.08 0-8.17-2.75-11.27-7.01l-7.01-9.32c7.99-3.29 12.25-10.21 12.25-18.02 0-10.56-7.46-18.46-20.95-18.46h-22.02v63.03h11.9v-24.59h7.19l8.08 12.25c5.77 8.97 11.19 12.43 20.06 12.43h0.62l1.69-10.3h-0.54z" fill="#fff"/>
</svg>
