<?xml version="1.0" encoding="UTF-8"?>
<svg width="170.2" height="170.2" version="1.1" viewBox="0 0 170.2 170.2" xml:space="preserve" xmlns="http://www.w3.org/2000/svg">
<style type="text/css">
	.st0{fill:#FFFFFF;}
	.st1{display:none;fill:#FFFFFF;}
	.st2{fill:none;stroke:#FFFFFF;stroke-width:3.2892;stroke-linecap:round;stroke-linejoin:round;}
	.st3{fill:none;stroke:#FFFFFF;stroke-width:3.289;stroke-linecap:round;stroke-linejoin:round;}
	.st4{fill:#FFFFFF;}
	.st5{fill:none;stroke:#FFFFFF;stroke-width:3.2892;stroke-linecap:round;stroke-linejoin:round;}
	.st6{fill:none;stroke:#FFFFFF;stroke-width:3.289;stroke-linecap:round;stroke-linejoin:round;}
	.st7{fill:none;stroke:#FFFFFF;stroke-miterlimit:10;}
</style>
<g transform="translate(-64.92 -65.42)">
	<g stroke="#fff">
		<path class="st5" d="m203 134.5c-2.31 6.34-9.32 9.61-15.66 7.3"/>
		<line class="st5" x1="197.1" x2="198.4" y1="121.9" y2="124.7"/>
		<line class="st5" x1="181.4" x2="182.7" y1="129.2" y2="132"/>
		<path class="st5" d="m202.7 154.4c-12.97 6.04-28.38 0.43-34.43-12.54-6.04-12.97-0.43-28.38 12.54-34.43 12.97-6.04 28.38-0.43 34.43 12.54 3.52 7.54 3.19 16.31-0.86 23.58"/>
		<path class="st5" d="m180.7 195.7c-2.31 6.34-9.32 9.61-15.66 7.3"/>
		<line class="st5" x1="174.8" x2="176.1" y1="183.1" y2="185.9"/>
		<line class="st5" x1="159.2" x2="160.4" y1="190.4" y2="193.2"/>
		<path class="st6" d="m180.4 215.6c-12.97 6.04-28.38 0.43-34.43-12.54-6.04-12.97-0.43-28.38 12.54-34.43 12.97-6.04 28.38-0.43 34.43 12.54 3.52 7.54 3.19 16.31-0.86 23.58"/>
		<path class="st5" d="m119.5 173.4c-2.31 6.34-9.32 9.61-15.66 7.3"/>
		<line class="st5" x1="113.6" x2="114.9" y1="160.9" y2="163.6"/>
		<line class="st5" x1="97.95" x2="99.24" y1="168.2" y2="170.9"/>
		<path class="st5" d="m119.2 193.4c-12.97 6.04-28.38 0.43-34.43-12.54-6.04-12.97-0.43-28.38 12.54-34.43 12.97-6.04 28.38-0.43 34.43 12.54 3.52 7.54 3.19 16.31-0.86 23.58"/>
		<path class="st5" d="m141.7 112.2c-2.31 6.34-9.32 9.61-15.66 7.3"/>
		<line class="st5" x1="135.9" x2="137.2" y1="99.65" y2="102.4"/>
		<line class="st5" x1="120.2" x2="121.5" y1="107" y2="109.7"/>
		<path class="st5" d="m141.5 132.2c-12.97 6.04-28.38 0.43-34.43-12.54s-0.43-28.38 12.54-34.43 28.38-0.43 34.43 12.54c3.52 7.54 3.19 16.31-0.86 23.58"/>
		<circle class="st6" cx="150" cy="150.5" r="83.44"/>
	</g>
</g>

</svg>
